<?xml version="1.0" standalone="no"?>
<!DOCTYPE svg PUBLIC "-//W3C//DTD SVG 20010904//EN"
 "http://www.w3.org/TR/2001/REC-SVG-20010904/DTD/svg10.dtd">
<svg version="1.0" xmlns="http://www.w3.org/2000/svg"
 width="260.000000pt" height="260.000000pt" viewBox="0 0 260.000000 260.000000"
 preserveAspectRatio="xMidYMid meet">
<metadata>
Created by potrace 1.14, written by Peter Selinger 2001-2017
</metadata>
<g transform="translate(0.000000,260.000000) scale(0.100000,-0.100000)"
fill="#000000" stroke="none">
<path d="M910 2563 c-429 -67 -745 -348 -852 -758 -19 -73 -22 -114 -25 -454
-5 -406 1 -489 44 -625 119 -381 448 -650 848 -696 108 -12 605 -12 725 0 154
16 175 21 166 46 -4 11 -2 12 14 4 13 -7 21 -7 26 2 4 7 3 8 -4 4 -7 -4 -12
-3 -12 1 0 10 42 38 53 35 5 -1 6 2 2 8 -5 8 -12 7 -23 -2 -13 -11 -13 -9 1
13 10 14 14 29 10 34 -5 4 -2 5 5 1 7 -4 10 -11 7 -16 -3 -4 2 -10 10 -14 18
-6 19 -1 5 25 -6 11 -7 19 -3 18 4 -1 19 3 33 9 14 6 20 11 13 11 -7 1 -10 8
-6 16 3 9 7 14 10 11 2 -2 15 7 28 20 13 13 32 24 41 24 10 0 14 5 10 15 -7
18 5 20 23 3 10 -11 11 -9 5 6 -6 15 -4 18 7 14 12 -5 14 0 11 22 -5 33 12 47
35 28 15 -11 16 -10 11 10 -5 19 -4 21 8 11 13 -10 18 -6 15 14 0 4 3 7 9 7 5
0 10 4 10 10 0 5 -7 7 -15 4 -8 -4 -15 -1 -15 5 0 6 6 10 13 9 6 -2 11 5 11
14 -1 10 4 14 12 11 8 -3 12 -9 9 -13 -7 -11 22 -6 32 5 4 4 3 5 -4 1 -8 -4
-11 2 -9 21 3 19 9 27 20 25 18 -3 22 14 4 20 -7 3 -5 7 6 11 10 4 15 3 11 -3
-3 -6 -2 -10 4 -10 6 0 9 -6 7 -13 -1 -6 -1 -9 1 -4 3 4 10 4 16 0 7 -4 6 1
-2 10 -8 10 -9 17 -3 17 6 0 9 8 7 18 -5 30 9 46 25 27 13 -16 35 -21 26 -6
-8 12 19 33 29 23 5 -4 5 -2 2 4 -8 14 17 37 28 26 4 -4 3 2 -3 14 -10 19 -9
21 16 17 23 -3 24 -2 7 6 -18 9 -17 10 8 10 15 1 27 6 27 12 0 5 -4 8 -8 5 -4
-2 -9 4 -9 15 -1 10 3 19 8 19 6 0 7 -6 4 -12 -4 -7 -1 -6 7 3 7 9 20 18 28
22 12 4 12 6 -2 6 -9 1 -20 6 -24 13 -4 7 -3 8 4 4 7 -4 12 -2 12 5 0 8 4 8
15 -1 12 -10 19 -10 27 -2 9 9 9 12 -1 12 -7 0 -9 5 -6 10 4 6 11 7 17 4 7 -4
8 -2 4 4 -3 6 4 20 16 31 12 12 24 29 26 39 22 93 30 672 12 822 -16 125 -45
223 -100 335 -144 292 -431 499 -754 544 -72 10 -747 14 -806 4z m-106 -415
c9 -24 45 -124 81 -223 35 -99 64 -174 65 -168 0 7 35 107 77 223 l77 210 76
0 76 0 17 -387 c10 -214 20 -412 24 -440 l5 -53 -60 0 c-58 0 -61 1 -66 28 -3
15 -8 162 -12 327 -3 165 -9 316 -13 337 -5 33 -13 18 -86 -183 l-80 -220 -45
3 -45 3 -47 130 c-26 72 -60 167 -75 213 -15 45 -31 82 -35 82 -4 0 -8 -78 -8
-172 0 -95 -3 -257 -7 -360 l-6 -188 -60 0 -60 0 6 68 c4 37 14 235 24 440
l17 372 72 0 72 0 16 -42z m1025 -164 c74 -22 144 -88 171 -163 57 -151 25
-347 -72 -437 -58 -55 -114 -77 -208 -82 -107 -5 -178 19 -239 80 -63 65 -85
130 -86 263 0 100 3 115 28 170 42 91 107 148 197 176 44 13 154 10 209 -7z
m-626 -802 l47 -21 0 -60 c0 -34 -2 -61 -5 -61 -3 0 -22 8 -43 19 -84 42 -208
50 -287 17 -116 -49 -187 -201 -170 -369 18 -186 104 -278 263 -281 37 0 79 3
95 7 l27 7 0 135 0 135 -90 0 -90 0 0 50 0 50 155 0 155 0 0 -224 0 -224 -37
-15 c-115 -45 -296 -49 -387 -9 -119 54 -194 162 -217 312 -40 268 83 495 298
550 66 16 232 6 286 -18z m675 -207 c96 -52 142 -140 150 -281 7 -129 -19
-211 -89 -288 -63 -69 -128 -96 -232 -96 -141 0 -221 45 -277 154 -34 67 -35
72 -35 185 0 107 2 121 29 179 35 76 108 145 175 167 30 10 77 14 136 12 77
-2 98 -7 143 -32z m669 -131 c-3 -3 -12 -4 -19 -1 -8 3 -5 6 6 6 11 1 17 -2
13 -5z m-202 -234 c-10 -11 -21 -18 -23 -15 -3 3 3 12 14 20 27 20 30 18 9 -5z"/>
<path d="M1645 1885 c-52 -18 -101 -72 -116 -127 -17 -62 -14 -185 6 -235 44
-110 181 -154 277 -89 55 37 81 97 86 197 7 145 -38 231 -135 258 -49 14 -69
13 -118 -4z"/>
<path d="M1645 895 c-48 -17 -98 -71 -113 -123 -17 -55 -15 -181 3 -233 29
-82 85 -121 176 -121 115 0 180 74 187 216 9 164 -48 255 -168 270 -28 4 -60
0 -85 -9z"/>
<path d="M2217 489 c7 -7 15 -10 18 -7 3 3 -2 9 -12 12 -14 6 -15 5 -6 -5z"/>
<path d="M2090 365 c0 -5 5 -17 10 -25 5 -8 10 -10 10 -5 0 6 -5 17 -10 25 -5
8 -10 11 -10 5z"/>
<path d="M1998 259 c-10 -5 -18 -15 -18 -21 0 -7 4 -7 13 1 8 6 16 9 19 6 2
-3 5 2 5 10 0 8 -1 15 -1 15 -1 0 -9 -5 -18 -11z"/>
<path d="M1930 175 c0 -8 2 -15 4 -15 2 0 6 7 10 15 3 8 1 15 -4 15 -6 0 -10
-7 -10 -15z"/>
</g>
</svg>
